<svg width="18" height="18" viewBox="0 0 18 18" fill="none" xmlns="http://www.w3.org/2000/svg">
<path fill-rule="evenodd" clip-rule="evenodd" d="M0.338172 17.6632C0.502266 17.8273 0.724825 17.9195 0.956889 17.9195C1.18895 17.9195 1.41151 17.8273 1.57561 17.6632L16.1687 3.07008L16.1675 10.8573C16.1675 11.0896 16.2598 11.3125 16.4241 11.4768C16.5884 11.6411 16.8112 11.7334 17.0436 11.7334C17.2759 11.7334 17.4988 11.6411 17.6631 11.4768C17.8274 11.3125 17.9197 11.0896 17.9197 10.8573L17.9197 0.957779C17.9198 0.842687 17.8973 0.728696 17.8533 0.622336C17.8093 0.515976 17.7448 0.419338 17.6634 0.337955C17.582 0.256572 17.4854 0.192045 17.379 0.148068C17.2727 0.104091 17.1587 0.0815284 17.0436 0.0816739H7.14407C6.91172 0.0816739 6.68888 0.173978 6.52458 0.33828C6.36027 0.502581 6.26797 0.725422 6.26797 0.957779C6.26797 1.19014 6.36027 1.41298 6.52458 1.57728C6.68888 1.74158 6.91172 1.83388 7.14407 1.83388L14.9313 1.83265L0.338172 16.4257C0.174077 16.5898 0.0818896 16.8124 0.0818896 17.0445C0.0818896 17.2765 0.174077 17.4991 0.338172 17.6632V17.6632Z" fill="white"/>
</svg>