<svg width="24" height="29" viewBox="0 0 24 29" fill="none" xmlns="http://www.w3.org/2000/svg">
<path d="M12.0003 0.571426C18.1546 0.571426 23.1431 5.56 23.1431 11.7143C23.1431 16.4229 19.8346 21.5543 13.3031 27.1634C12.94 27.4754 12.4769 27.6468 11.9981 27.6463C11.5194 27.6459 11.0566 27.4738 10.694 27.1611L10.262 26.7863C4.01971 21.3234 0.857422 16.3177 0.857422 11.7143C0.857422 5.56 5.84599 0.571426 12.0003 0.571426ZM12.0003 2.28571C9.49967 2.28571 7.10147 3.27908 5.33327 5.04728C3.56507 6.81548 2.57171 9.21367 2.57171 11.7143C2.57171 15.7166 5.48371 20.328 11.3877 25.4937L11.814 25.8629C11.8658 25.9074 11.9319 25.9319 12.0003 25.9319C12.0686 25.9319 12.1347 25.9074 12.1866 25.8629C18.3763 20.5463 21.4288 15.8114 21.4288 11.7143C21.4288 10.4761 21.185 9.25005 20.7111 8.10613C20.2373 6.9622 19.5428 5.9228 18.6673 5.04728C17.7918 4.17175 16.7524 3.47725 15.6084 3.00342C14.4645 2.52959 13.2385 2.28571 12.0003 2.28571ZM12.0003 7.42857C13.1369 7.42857 14.227 7.8801 15.0307 8.68383C15.8345 9.48755 16.286 10.5776 16.286 11.7143C16.286 12.8509 15.8345 13.941 15.0307 14.7447C14.227 15.5485 13.1369 16 12.0003 16C10.8636 16 9.77355 15.5485 8.96982 14.7447C8.16609 13.941 7.71456 12.8509 7.71456 11.7143C7.71456 10.5776 8.16609 9.48755 8.96982 8.68383C9.77355 7.8801 10.8636 7.42857 12.0003 7.42857ZM12.0003 9.14286C11.3183 9.14286 10.6642 9.41377 10.182 9.89601C9.69977 10.3782 9.42885 11.0323 9.42885 11.7143C9.42885 12.3963 9.69977 13.0503 10.182 13.5326C10.6642 14.0148 11.3183 14.2857 12.0003 14.2857C12.6823 14.2857 13.3363 14.0148 13.8186 13.5326C14.3008 13.0503 14.5717 12.3963 14.5717 11.7143C14.5717 11.0323 14.3008 10.3782 13.8186 9.89601C13.3363 9.41377 12.6823 9.14286 12.0003 9.14286Z" fill="white" stroke="white"/>
</svg>
