<svg width="19" height="29" viewBox="0 0 19 29" fill="none" xmlns="http://www.w3.org/2000/svg">
<path d="M14.5 2.6875C14.9476 2.6875 15.3768 2.86529 15.6932 3.18176C16.0097 3.49822 16.1875 3.92745 16.1875 4.375V24.625C16.1875 25.0726 16.0097 25.5018 15.6932 25.8182C15.3768 26.1347 14.9476 26.3125 14.5 26.3125H4.375C3.92745 26.3125 3.49823 26.1347 3.18176 25.8182C2.86529 25.5018 2.6875 25.0726 2.6875 24.625V4.375C2.6875 3.92745 2.86529 3.49822 3.18176 3.18176C3.49823 2.86529 3.92745 2.6875 4.375 2.6875H14.5ZM4.375 1C3.47989 1 2.62145 1.35558 1.98851 1.98851C1.35558 2.62145 1 3.47989 1 4.375V24.625C1 25.5201 1.35558 26.3785 1.98851 27.0115C2.62145 27.6444 3.47989 28 4.375 28H14.5C15.3951 28 16.2535 27.6444 16.8865 27.0115C17.5194 26.3785 17.875 25.5201 17.875 24.625V4.375C17.875 3.47989 17.5194 2.62145 16.8865 1.98851C16.2535 1.35558 15.3951 1 14.5 1H4.375Z" fill="white" stroke="white" stroke-width="0.7"/>
<path d="M9.4375 24.625C9.88505 24.625 10.3143 24.4472 10.6307 24.1307C10.9472 23.8143 11.125 23.3851 11.125 22.9375C11.125 22.4899 10.9472 22.0607 10.6307 21.7443C10.3143 21.4278 9.88505 21.25 9.4375 21.25C8.98995 21.25 8.56073 21.4278 8.24426 21.7443C7.92779 22.0607 7.75 22.4899 7.75 22.9375C7.75 23.3851 7.92779 23.8143 8.24426 24.1307C8.56073 24.4472 8.98995 24.625 9.4375 24.625Z" fill="white" stroke="white" stroke-width="0.2"/>
</svg>
