<svg width="28" height="28" viewBox="0 0 28 28" fill="none" xmlns="http://www.w3.org/2000/svg">
<g clip-path="url(#clip0_224_1468)">
<path d="M25.6668 25.0833C25.6668 25.7279 25.1447 26.25 24.5002 26.25H16.6018C17.1583 25.6299 17.5002 24.8138 17.5002 23.9167H24.5002C25.1447 23.9167 25.6668 24.4387 25.6668 25.0833ZM5.8335 7C5.8335 5.59183 6.83741 4.4135 8.16683 4.14225V0H9.3335V4.14225C10.6629 4.4135 11.6668 5.59125 11.6668 7C11.6668 7.96075 11.1937 8.80775 10.4745 9.33975L11.2626 11.2426C10.7866 11.8399 10.5002 12.5947 10.5002 13.4167C10.5002 14.3132 10.842 15.1299 11.3991 15.75C11.2025 15.9687 11.045 16.219 10.9073 16.4815L8.18375 9.90675C8.17733 9.89042 8.175 9.87408 8.16916 9.85775C6.83858 9.58767 5.8335 8.40933 5.8335 7ZM7.00016 7C7.00016 7.8365 7.59108 8.53592 8.37683 8.708C8.49291 8.57092 8.63816 8.456 8.8155 8.3825C9.13633 8.2495 9.48108 8.27458 9.77041 8.41575C10.2102 8.09725 10.5002 7.58333 10.5002 7C10.5002 6.03517 9.715 5.25 8.75016 5.25C7.78533 5.25 7.00016 6.03517 7.00016 7ZM19.8166 9.90675L16.3335 18.3155V23.9167C16.3335 25.2052 15.2887 26.25 14.0002 26.25H3.50016C2.85558 26.25 2.3335 25.7279 2.3335 25.0833C2.3335 24.4387 2.85558 23.9167 3.50016 23.9167H11.6668V18.0833C11.6668 16.7948 12.7116 15.75 14.0002 15.75C14.2854 15.75 14.5549 15.8083 14.8075 15.9022L14.9574 15.54C14.6646 15.6724 14.3426 15.75 14.0002 15.75C12.7116 15.75 11.6668 14.7052 11.6668 13.4167C11.6668 12.1281 12.7116 11.0833 14.0002 11.0833C14.9988 11.0833 15.8441 11.7133 16.1772 12.5953L17.5258 9.33917C16.8066 8.80775 16.3335 7.96075 16.3335 7C16.3335 5.59183 17.3374 4.4135 18.6668 4.14225V0H19.8335V4.14225C21.1629 4.4135 22.1668 5.59125 22.1668 7C22.1668 8.40933 21.1617 9.58767 19.8312 9.85775C19.8253 9.87408 19.823 9.891 19.8166 9.90675ZM17.5002 7C17.5002 7.58333 17.7901 8.09725 18.2299 8.41575C18.5198 8.27458 18.864 8.2495 19.1848 8.3825C19.3622 8.456 19.5074 8.57092 19.6235 8.70742C20.4092 8.53592 21.0002 7.8365 21.0002 7C21.0002 6.03517 20.215 5.25 19.2502 5.25C18.2853 5.25 17.5002 6.03517 17.5002 7Z" fill="white"/>
</g>
<defs>
<clipPath id="clip0_224_1468">
<rect width="28" height="28" fill="white"/>
</clipPath>
</defs>
</svg>
