<svg width="28" height="28" viewBox="0 0 28 28" fill="none" xmlns="http://www.w3.org/2000/svg">
<path d="M23.8438 20.8906C25.2029 20.8906 26.3047 19.7888 26.3047 18.4297C26.3047 17.0705 25.2029 15.9688 23.8438 15.9688C22.4846 15.9688 21.3828 17.0705 21.3828 18.4297C21.3828 19.7888 22.4846 20.8906 23.8438 20.8906Z" fill="white"/>
<path d="M26.3033 21.7097C25.6175 22.2253 24.7658 22.5312 23.8438 22.5312C22.9217 22.5312 22.07 22.2253 21.3842 21.7097C20.3872 22.458 19.7422 23.6496 19.7422 24.9921V27.9999H27.125C27.578 27.9999 27.9453 27.6326 27.9453 27.1796V24.9921C27.9453 23.6496 27.3003 22.458 26.3033 21.7097Z" fill="white"/>
<path d="M14 20.8906C15.3591 20.8906 16.4609 19.7888 16.4609 18.4297C16.4609 17.0705 15.3591 15.9688 14 15.9688C12.6409 15.9688 11.5391 17.0705 11.5391 18.4297C11.5391 19.7888 12.6409 20.8906 14 20.8906Z" fill="white"/>
<path d="M16.4596 21.7097C15.7738 22.2253 14.922 22.5312 14 22.5312C13.078 22.5312 12.2262 22.2253 11.5404 21.7097C10.5435 22.458 9.89844 23.6496 9.89844 24.9921V27.9999H18.1016V24.9921C18.1016 23.6496 17.4565 22.458 16.4596 21.7097Z" fill="white"/>
<path d="M4.15625 20.8906C5.51539 20.8906 6.61719 19.7888 6.61719 18.4297C6.61719 17.0705 5.51539 15.9688 4.15625 15.9688C2.79711 15.9688 1.69531 17.0705 1.69531 18.4297C1.69531 19.7888 2.79711 20.8906 4.15625 20.8906Z" fill="white"/>
<path d="M6.61582 21.7097C5.93004 22.2253 5.07828 22.5312 4.15625 22.5312C3.23422 22.5312 2.38246 22.2253 1.69668 21.7097C0.699727 22.458 0.0546875 23.6496 0.0546875 24.9921V27.1796C0.0546875 27.6326 0.421969 27.9999 0.875 27.9999H8.25781V24.9921C8.25781 23.6496 7.61277 22.458 6.61582 21.7097Z" fill="white"/>
<path d="M17.2812 8.75H18.375C18.5258 8.75 18.6484 8.62734 18.6484 8.47656V5.19531C18.6484 5.04454 18.5258 4.92188 18.375 4.92188H17.2812C17.1305 4.92188 17.0078 5.04454 17.0078 5.19531V8.47656C17.0078 8.62734 17.1305 8.75 17.2812 8.75Z" fill="white"/>
<path d="M6.89062 13.6719H21.1094C22.4663 13.6719 23.5703 12.5679 23.5703 11.2109V2.46094C23.5703 1.10398 22.4663 0 21.1094 0H6.89062C5.53366 0 4.42969 1.10398 4.42969 2.46094V11.2109C4.42969 12.5679 5.53366 13.6719 6.89062 13.6719ZM7.71094 5.19531C7.71094 4.1399 8.56959 3.28125 9.625 3.28125H10.7188C11.7742 3.28125 12.6328 4.1399 12.6328 5.19531V6.01562H15.3672V5.19531C15.3672 4.1399 16.2258 3.28125 17.2812 3.28125H18.375C19.4304 3.28125 20.2891 4.1399 20.2891 5.19531V8.47656C20.2891 9.53198 19.4304 10.3906 18.375 10.3906H17.2812C16.2258 10.3906 15.3672 9.53198 15.3672 8.47656V7.65625H12.6328V8.47656C12.6328 9.53198 11.7742 10.3906 10.7188 10.3906H9.625C8.56959 10.3906 7.71094 9.53198 7.71094 8.47656V5.19531Z" fill="white"/>
<path d="M9.625 8.75H10.7188C10.8695 8.75 10.9922 8.62734 10.9922 8.47656V5.19531C10.9922 5.04454 10.8695 4.92188 10.7188 4.92188H9.625C9.47423 4.92188 9.35156 5.04454 9.35156 5.19531V8.47656C9.35156 8.62734 9.47423 8.75 9.625 8.75Z" fill="white"/>
</svg>
