<svg width="28" height="28" viewBox="0 0 28 28" fill="none" xmlns="http://www.w3.org/2000/svg">
<path d="M5.74137 18.1024C5.72458 18.1208 4.10156 19.9601 4.10156 22.2031C4.10156 24.0633 5.20466 25.7663 5.74219 26.3023L5.74459 26.3047C6.81915 25.1024 7.38281 23.6501 7.38281 22.2031C7.38281 19.9601 5.7598 18.1208 5.74219 18.1016L5.74137 18.1024Z" fill="white"/>
<path d="M3.28125 14C3.28125 15.3146 3.53642 16.5649 3.96698 17.7325C4.26437 17.3007 4.50187 17.0264 4.52933 16.9961L5.6869 15.728L6.90134 16.9424C6.91819 16.9586 8.18459 18.3556 8.74923 20.3643C9.6017 19.9717 10.5266 19.7422 11.4844 19.7422H13.125V21.3828C13.125 23.3995 11.9867 25.123 10.4068 26.3047H21.3828V23.8237C23.1212 23.0603 28 20.3662 28 14V13.1797H3.28125V14Z" fill="white"/>
<path d="M3.40703 25.7797C2.88641 24.7865 2.46094 23.5332 2.46094 22.2031C2.46094 22.1534 2.47155 22.1081 2.47264 22.0587C1.72687 21.624 0.878609 21.3828 0 21.3828C0 23.3156 1.54268 24.9749 3.40703 25.7797Z" fill="white"/>
<path d="M11.4844 21.3828C10.6056 21.3828 9.75723 21.6239 9.0113 22.0589C9.0125 22.1081 9.02344 22.1536 9.02344 22.2031C9.02344 23.4426 8.67426 24.6625 8.06985 25.7833C9.9377 24.9799 11.4844 23.3183 11.4844 21.3828Z" fill="white"/>
<path d="M25.9057 5.50047C26.1669 5.10076 26.3047 4.63531 26.3047 4.15625C26.3047 2.79923 25.2008 1.69531 23.8438 1.69531C23.1036 1.69531 22.409 2.02377 21.9396 2.59733L14.5572 11.5391H21.9583L25.9057 5.50047Z" fill="white"/>
</svg>
