<svg width="28" height="28" viewBox="0 0 28 28" fill="none" xmlns="http://www.w3.org/2000/svg">
<path d="M16.5928 7.38091C17.045 7.38091 17.413 7.01302 17.413 6.56082C17.413 6.10862 17.0451 5.74072 16.5928 5.74072C16.1406 5.74072 15.7727 6.10862 15.7727 6.56082C15.7727 7.01302 16.1406 7.38091 16.5928 7.38091Z" fill="white"/>
<path d="M16.5928 13.1215C20.2104 13.1215 23.1536 10.1783 23.1536 6.56074C23.1536 2.94315 20.2104 0 16.5928 0C12.9753 0 10.0322 2.94315 10.0322 6.56074C10.0322 10.1783 12.9753 13.1215 16.5928 13.1215ZM16.5928 4.10047C17.9494 4.10047 19.0532 5.20415 19.0532 6.56074C19.0532 7.91734 17.9494 9.02102 16.5928 9.02102C15.2363 9.02102 14.1326 7.91734 14.1326 6.56074C14.1326 5.20415 15.2363 4.10047 16.5928 4.10047Z" fill="white"/>
<path d="M27.6431 14.252C27.4243 14.0984 27.1445 14.0611 26.8931 14.152L23.5178 15.3723C22.4142 14.5948 21.0361 14.1711 19.5847 14.1711C17.5841 14.1711 15.7197 14.9968 14.5709 16.3583C13.6834 15.7972 12.626 15.5976 11.5591 15.8093C10.8363 15.9527 10.1735 16.2757 9.63905 16.7248C9.69416 16.6769 9.60001 16.2872 9.59739 16.208C9.58317 15.7795 9.64359 15.351 9.74943 14.9363C9.97501 14.0524 10.4131 13.2196 10.8889 12.447C9.41549 11.0188 8.47506 9.0442 8.39781 6.85352C7.91303 7.19068 7.44481 7.55338 6.99398 7.94134C5.94847 8.84104 5.00569 9.86506 4.18828 10.9759C3.63411 11.729 3.12888 12.5166 2.67761 13.3356C0.577516 17.1466 0.0333021 20.7586 0.00820721 21.7234C0.00684039 21.7765 0.0106128 21.8296 0.0195245 21.882C0.315851 23.6268 1.60099 25.2092 3.6381 26.338C5.57232 27.4097 8.05802 27.9999 10.6373 27.9999C13.1439 27.9999 15.5315 27.4515 17.4356 26.4467L18.8784 27.7327C19.0284 27.8965 19.2433 27.9999 19.4829 27.9999H27.1721C27.6251 27.9999 27.9922 27.6327 27.9922 27.1798V14.9232C27.9921 14.6559 27.8618 14.4055 27.6431 14.252Z" fill="white"/>
</svg>
