<svg width="28" height="28" viewBox="0 0 28 28" fill="none" xmlns="http://www.w3.org/2000/svg">
<path d="M17.1556 17.2167L26.3478 7.15082L27.9601 8.62311L17.2648 20.3348L11.3643 14.7184L12.8695 13.137L17.1556 17.2167ZM25.3825 14.6834L27.9383 11.8845C27.856 14.6169 26.9789 18.5722 24.7196 21.9662C23.5084 23.7859 22.047 25.2248 20.3758 26.2432C18.4628 27.4089 16.3084 28 13.9727 28C11.8089 28 9.7598 27.407 7.88269 26.2374C6.24527 25.2171 4.77917 23.7863 3.52521 21.985C1.35074 18.8612 0 14.8293 0 11.4619C0 9.53314 0.645782 7.70496 1.81857 6.31406C2.79932 5.15109 4.05862 4.40277 5.44205 4.14236C5.12759 3.24899 4.96695 2.2659 4.96695 1.20078V0.0311889L6.13354 0.111725C6.22263 0.11792 8.33707 0.273438 10.4735 1.26059C11.4442 1.7092 12.2667 2.25543 12.9357 2.89032V0H15.119V7.23114C15.5236 7.00897 15.9277 6.66846 16.4368 6.22562C17.557 5.2515 18.9514 4.03897 21.3956 4.03897C22.7376 4.03897 24.0059 4.4816 25.0764 5.30576L23.59 6.93335C22.9448 6.48154 22.195 6.2222 21.3956 6.2222C19.7678 6.2222 18.8881 6.98718 17.8694 7.87308C16.8766 8.73654 15.7515 9.71494 13.9727 9.71494L13.9276 9.71408C13.8374 9.71045 11.6952 9.61069 9.53549 8.55325C8.29199 7.94443 7.29309 7.14804 6.54968 6.18524V6.2222C4.14194 6.2222 2.18323 8.57269 2.18323 11.4619C2.18323 14.3621 3.41327 18.0029 5.31686 20.7375C6.92993 23.0546 9.741 25.8168 13.9727 25.8168C21.0286 25.8168 24.3398 19.5091 25.3825 14.6834ZM7.26126 2.4902C7.59494 4.32629 8.67886 5.70309 10.4957 6.59241C11.3468 7.00919 12.1979 7.24268 12.8501 7.37277C12.6561 5.55099 11.551 4.16351 9.55771 3.24237C8.73462 2.86212 7.91046 2.62991 7.26126 2.4902Z" fill="white"/>
</svg>
