<svg width="28" height="28" viewBox="0 0 28 28" fill="none" xmlns="http://www.w3.org/2000/svg">
<g clip-path="url(#clip0_221_1106)">
<path d="M12.2246 5.71225C12.7293 6.05978 13.3408 6.26444 13.9999 6.26444C14.6591 6.26444 15.27 6.05978 15.7753 5.71225C15.2943 5.30806 14.6752 5.06421 13.9999 5.06421C13.3246 5.06421 12.7051 5.30793 12.2246 5.71225Z" fill="white"/>
<path d="M15.7753 0.553209C15.2696 0.205036 14.6591 0.000244141 13.9998 0.000244141C13.34 0.000244141 12.729 0.205036 12.2245 0.553209C12.705 0.956755 13.3243 1.20125 13.9998 1.20125C14.6754 1.20125 15.2942 0.956755 15.7753 0.553209Z" fill="white"/>
<path d="M11.6703 5.2214C12.2904 4.66715 13.1048 4.32681 13.9999 4.32681C14.8951 4.32681 15.7096 4.66715 16.3296 5.2214C16.827 4.66715 17.1328 3.93637 17.1328 3.13236C17.1328 2.32848 16.827 1.59835 16.3296 1.04346C15.7096 1.59835 14.8951 1.93791 13.9999 1.93791C13.1048 1.93791 12.2904 1.59758 11.6703 1.04346C11.1729 1.59835 10.8671 2.32848 10.8671 3.13236C10.8671 3.93637 11.1729 4.66715 11.6703 5.2214Z" fill="white"/>
<path d="M27.5072 25.1278L21.0127 18.634C20.7905 18.4118 20.5198 18.2701 20.2368 18.1991C18.6342 16.1901 18.2859 13.9629 18.2152 13.0659C18.7639 10.7331 18.2539 8.01958 16.7526 5.61899C16.1869 6.24557 15.4116 6.67648 14.5352 6.80303L14.8561 7.12384L13.4109 8.56844L11.9658 7.12358L12.5415 6.54788C12.2469 6.4221 11.9741 6.25714 11.7243 6.06288L11.3146 6.47285L9.87012 5.02748L10.5088 4.38857C10.3856 4.04618 10.3116 3.68117 10.2946 3.30101L9.21887 4.37611L7.77389 2.93151L9.10492 1.60088C9.20821 1.62439 9.31125 1.65497 9.41467 1.68233L10.3294 2.59709C10.4266 1.9249 10.7011 1.31065 11.1076 0.806119C7.82593 -0.55458 4.28472 -0.203838 2.04036 2.04091C-1.15242 5.23433 -0.529439 11.0514 3.42829 15.0096C6.24065 17.8216 9.98819 18.941 13.0695 18.2137C13.9669 18.2835 16.1848 18.628 18.1994 20.2368C18.2707 20.5197 18.4109 20.7906 18.633 21.0127L25.1282 27.5071C25.7853 28.1642 26.8498 28.1642 27.5074 27.5071C28.1643 26.8497 28.1643 25.7855 27.5072 25.1278ZM16.969 12.1272L16.1574 11.3155L17.011 10.4633C17.0596 11.0312 17.0467 11.5887 16.969 12.1272ZM16.7253 13.1847C16.5031 13.8667 16.1593 14.4955 15.6964 15.0442L14.0625 13.411L15.5074 11.9668L16.7253 13.1847ZM15.5073 7.77458L16.7573 9.02453C16.7846 9.12757 16.8139 9.23061 16.8374 9.33416L15.5073 10.6643L14.0618 9.21956L15.5073 7.77458ZM14.8561 11.3155L13.4109 12.7604L11.9658 11.3149L13.4109 9.87081L14.8561 11.3155ZM6.47242 11.3149L5.02667 12.7604L3.58221 11.3162L5.02732 9.87132L6.47242 11.3149ZM3.58259 7.12333L5.02744 5.67848L6.47255 7.12333L5.02744 8.56869L3.58259 7.12333ZM5.67831 9.21943L7.12342 7.77458L8.56827 9.21943L7.12342 10.6642L5.67831 9.21943ZM9.219 9.87016L10.6641 11.3149L9.21926 12.7604L7.77415 11.3149L9.219 9.87016ZM11.3151 11.9668L12.7602 13.4116L11.3151 14.8558L9.87025 13.411L11.3151 11.9668ZM12.7598 9.21943L11.3151 10.6642L9.87025 9.2193L11.3147 7.77458L12.7598 9.21943ZM9.21926 5.67912L10.6641 7.12397L9.21926 8.56869L7.77402 7.12384L9.21926 5.67912ZM8.56827 5.0271L7.12316 6.47259L5.67831 5.0271L7.12316 3.58238L8.56827 5.0271ZM7.97522 1.4282L7.12239 2.28039L6.31106 1.46932C6.84963 1.39172 7.40735 1.37938 7.97522 1.4282ZM5.25421 1.71381L6.47152 2.93164L5.02732 4.37649L3.39309 2.74265C3.94374 2.27975 4.57161 1.93607 5.25421 1.71381ZM2.7421 3.39326L4.37555 5.0271L2.93147 6.47195L1.71261 5.25412C1.93565 4.57139 2.27855 3.94352 2.7421 3.39326ZM1.46851 6.31225L2.27984 7.12333L1.42739 7.9768C1.37819 7.40752 1.39052 6.85006 1.46851 6.31225ZM1.60019 9.10598L2.9316 7.77458L4.37568 9.21943L2.93083 10.6642L1.68126 9.41497C1.65364 9.31193 1.62332 9.20825 1.60019 9.10598ZM4.08519 13.7025C3.607 13.1828 3.18521 12.6345 2.83216 12.066L2.93096 11.9669L4.37542 13.4118L4.08519 13.7025ZM6.37273 15.6063C5.80293 15.2536 5.25588 14.8312 4.73593 14.3532L5.02667 14.063L6.47152 15.5079L6.37273 15.6063ZM5.67805 13.4116L7.12316 11.9668L8.56827 13.4116L7.12316 14.8558L5.67805 13.4116ZM9.02372 16.7577L7.77389 15.5075L9.219 14.0624L10.6641 15.5075L9.33271 16.8379C9.23005 16.8145 9.12663 16.7844 9.02372 16.7577ZM10.4615 17.0114L11.315 16.1577L12.1263 16.9692C11.5889 17.0471 11.0304 17.0601 10.4615 17.0114ZM13.185 16.7257L11.9667 15.5075L13.4112 14.0624L15.0444 15.6963C14.4948 16.1597 13.8669 16.5028 13.185 16.7257ZM18.6329 18.6334C18.5468 18.7203 18.4733 18.8138 18.4108 18.9133C17.2735 18.1182 16.1169 17.6505 15.1397 17.3816C15.5921 17.1073 16.0149 16.7818 16.398 16.3986C16.7814 16.0156 17.107 15.5915 17.3811 15.1403C17.6499 16.1181 18.1172 17.2742 18.9113 18.4107C18.8129 18.4744 18.7195 18.5479 18.6329 18.6334Z" fill="white"/>
</g>
<defs>
<clipPath id="clip0_221_1106">
<rect width="28" height="28" fill="white"/>
</clipPath>
</defs>
</svg>
