<svg width="28" height="28" viewBox="0 0 28 28" fill="none" xmlns="http://www.w3.org/2000/svg">
<path d="M10.7765 14.8185C12.4278 15.0224 13.9675 15.5487 15.3949 16.2082C16.0873 16.5317 16.8286 16.9557 17.4094 17.2867C17.9908 17.6295 18.5815 17.9388 19.1784 18.24L15.5598 11.0759L14.7956 9.73211L12.0949 5.00088C11.7137 4.33331 10.8652 4.10087 10.197 4.48083C9.52693 4.86389 9.29635 5.71245 9.67817 6.38002L12.6646 11.6164L11.9003 12.2945L7.33518 14.8979L7.2298 14.9567C8.40564 14.7094 9.6199 14.6728 10.7765 14.8185Z" fill="white"/>
<path d="M22.109 14.5271C23.5508 13.7046 24.0522 11.8674 23.2316 10.4269C22.4097 8.98887 20.5743 8.48494 19.1332 9.30747C17.6939 10.13 17.1869 11.9678 18.0101 13.4052C18.8307 14.8488 20.671 15.3497 22.109 14.5271Z" fill="white"/>
<path d="M27.8017 16.7722C27.3752 18.1873 26.7021 19.5014 25.7432 20.1801C24.8103 20.8594 23.746 20.9016 22.5752 20.666C21.4068 20.4206 20.195 19.921 19.0086 19.3229C18.408 19.0198 17.8173 18.7098 17.2346 18.3652C16.6538 18.0342 15.9107 17.6109 15.2183 17.2873C13.792 16.6284 12.2511 16.1009 10.5986 15.897C8.95916 15.6912 7.19509 15.827 5.60273 16.4592C4.00664 17.0809 2.65415 18.1724 1.71819 19.4567C0.797733 20.7559 0.159919 22.1952 0 23.7014C1.78948 21.3324 4.07172 19.6334 6.44075 19.2355C8.80234 18.8022 11.2606 19.5138 13.6445 20.6351C14.2656 20.9171 14.7887 21.2016 15.473 21.5685C16.1617 21.915 16.8652 22.2528 17.5892 22.5349C19.0433 23.0952 20.6072 23.5551 22.3297 23.5669C23.1857 23.5694 24.0938 23.4504 24.951 23.0952C25.8144 22.7481 26.5868 22.1357 27.0888 21.4024C28.0707 19.895 28.1723 18.2214 27.8017 16.7722Z" fill="white"/>
</svg>
