<svg width="28" height="28" viewBox="0 0 28 28" fill="none" xmlns="http://www.w3.org/2000/svg">
<path d="M6.60992 3.56665C4.82131 3.56665 3.36624 5.02177 3.36624 6.81033C3.36624 8.59888 4.82137 10.054 6.60992 10.054C8.39848 10.054 9.8536 8.59894 9.8536 6.81033C9.8536 5.02172 8.39853 3.56665 6.60992 3.56665Z" fill="white"/>
<path d="M20.24 25.3183L17.3359 17.1279H11.7085L9.13161 11.0117H4.92625L1.71948 19.7336C1.58987 20.0861 1.56291 20.4624 1.63275 20.8212H0V22.4618H8.44594H8.93987H13.8866L16.6215 27.0236C16.9945 27.6457 17.6603 27.9997 18.3484 27.9997C18.6204 27.9997 18.8961 27.9443 19.1584 27.8284C20.1141 27.4057 20.5891 26.3032 20.24 25.3183ZM5.77199 20.8212L6.74887 19.255L7.57772 20.8212H5.77199Z" fill="white"/>
<path d="M19.6714 6.16128C19.6714 5.12156 19.2509 4.55101 18.9439 4.1344C18.6897 3.78954 18.5363 3.58134 18.5363 3.08084C18.5363 2.58029 18.6897 2.37215 18.9439 2.02718C19.2509 1.61057 19.6714 1.04002 19.6714 0.000244141H18.0308C18.0308 0.500744 17.8774 0.708939 17.6232 1.05385C17.3162 1.47046 16.8957 2.04102 16.8957 3.08079C16.8957 4.12051 17.3162 4.69106 17.6232 5.10767C17.8774 5.45253 18.0308 5.66073 18.0308 6.16123C18.0308 6.66189 17.8774 6.87009 17.6232 7.21505C17.3162 7.63183 16.8957 8.20244 16.8957 9.24226C16.8957 10.2821 17.3161 10.8527 17.6232 11.2693C17.8774 11.6143 18.0308 11.8225 18.0308 12.3231H19.6714C19.6714 11.2833 19.251 10.7127 18.9439 10.296C18.6897 9.95107 18.5363 9.74287 18.5363 9.24221C18.5363 8.74155 18.6897 8.5334 18.9439 8.18838C19.2509 7.77172 19.6714 7.20111 19.6714 6.16128Z" fill="white"/>
<path d="M23.8357 6.16112C23.8357 5.1214 23.4152 4.55085 23.1081 4.13424C22.854 3.78938 22.7006 3.58118 22.7006 3.08068C22.7006 2.58013 22.854 2.37199 23.1082 2.02702C23.4152 1.61057 23.8357 1.04002 23.8357 0.000244141H22.1951C22.1951 0.500744 22.0416 0.708939 21.7875 1.05385C21.4805 1.47046 21.0599 2.04102 21.0599 3.08079C21.0599 4.12051 21.4804 4.69106 21.7875 5.10767C22.0416 5.45253 22.1951 5.66073 22.1951 6.16123C22.1951 6.66189 22.0416 6.87009 21.7874 7.21506C21.4804 7.63172 21.0599 8.20233 21.0599 9.2421C21.0599 10.2819 21.4804 10.8525 21.7874 11.2691C22.0416 11.6141 22.1951 11.8224 22.1951 12.323H23.8357C23.8357 11.2831 23.4153 10.7125 23.1082 10.2959C22.854 9.95091 22.7006 9.74271 22.7006 9.24205C22.7006 8.74138 22.854 8.53324 23.1082 8.18822C23.4152 7.77156 23.8357 7.20095 23.8357 6.16112Z" fill="white"/>
<path d="M28 6.16128C28 5.12156 27.5795 4.55101 27.2724 4.1344C27.0183 3.78954 26.8648 3.58135 26.8648 3.08085C26.8648 2.58029 27.0183 2.37215 27.2724 2.02718C27.5795 1.61057 28 1.04002 28 0.000244141H26.3594C26.3594 0.500744 26.2059 0.708939 25.9518 1.05385C25.6448 1.47046 25.2242 2.04102 25.2242 3.08079C25.2242 4.12051 25.6447 4.69106 25.9518 5.10767C26.2059 5.45253 26.3594 5.66073 26.3594 6.16123C26.3594 6.66189 26.2059 6.87009 25.9517 7.21506C25.6447 7.63172 25.2242 8.20233 25.2242 9.2421C25.2242 10.2819 25.6446 10.8525 25.9517 11.2691C26.2059 11.6141 26.3594 11.8224 26.3594 12.323H28C28 11.2831 27.5795 10.7125 27.2725 10.2959C27.0183 9.95091 26.8648 9.74271 26.8648 9.24205C26.8648 8.74138 27.0183 8.53324 27.2725 8.18822C27.5795 7.77172 28 7.20111 28 6.16128Z" fill="white"/>
</svg>
