<svg width="28" height="28" viewBox="0 0 28 28" fill="none" xmlns="http://www.w3.org/2000/svg">
<path d="M14.4277 0C13.0707 0 11.9668 1.15861 11.9668 2.51562C11.9668 3.87264 13.0707 4.97656 14.4277 4.97656C15.7848 4.97656 16.8887 3.87264 16.8887 2.51562C16.8887 1.15861 15.7848 0 14.4277 0Z" fill="white"/>
<path d="M18.494 9.07818H15.8921L13.0907 6.27758C12.2943 5.48111 10.9624 5.7102 10.4639 6.70376L7.18267 13.2663C6.81336 14.0041 7.05371 14.9069 7.74021 15.3651L11.6191 17.951L9.55468 22.5599C9.26637 23.423 9.73701 24.3502 10.5937 24.6346C11.4446 24.921 12.3791 24.4639 12.6677 23.5972L15.1286 17.8003C15.3618 17.1002 15.0958 16.3255 14.4822 15.9162L10.7651 13.4377L12.3818 10.2076L14.0528 11.8787C14.3629 12.1888 14.7746 12.3594 15.2128 12.3594H18.4941C19.3985 12.3594 20.1347 11.6232 20.1347 10.7188C20.1347 9.81433 19.3984 9.07818 18.494 9.07818Z" fill="white"/>
<path d="M7.04485 5.79688C6.79089 5.79688 6.53697 5.85698 6.31106 5.96991L3.02981 7.61053C2.21682 8.0162 1.89067 9.00293 2.29601 9.81192C2.70649 10.6339 3.69678 10.9473 4.49746 10.5457L7.44593 9.07113C7.71478 8.53322 8.82559 6.28414 9.11067 5.79688H7.04485Z" fill="white"/>
<path d="M6.83021 16.7301C6.49153 16.5041 6.2176 16.2182 5.99316 15.9023L1.60389 17.3655C0.747264 17.6515 0.279303 18.5779 0.567342 19.4418C0.857842 20.3164 1.80142 20.7626 2.64213 20.4784L7.56401 18.8378C8.08671 18.6626 8.35058 18.3389 8.57386 17.8923L6.83021 16.7301Z" fill="white"/>
<path d="M27.3797 8.62303C27.1281 8.24568 26.6186 8.14479 26.2421 8.39553L21.3202 11.6768C20.9429 11.9283 20.8412 12.437 21.0927 12.8143C21.3402 13.186 21.847 13.2959 22.2303 13.0418L23.5827 12.1402L21.1015 24.7187H2.90808C2.00196 24.7187 1.26746 25.4532 1.26746 26.3593C1.26746 27.2653 2.00196 28 2.90808 28H24.2362C25.1423 28 25.8768 27.2653 25.8768 26.3593C25.8768 25.4532 25.1423 24.7187 24.2362 24.7187H22.7741L25.5099 10.8554L27.1521 9.76058C27.5294 9.50902 27.6312 9.00037 27.3797 8.62303Z" fill="white"/>
</svg>
