<svg width="28" height="28" viewBox="0 0 28 28" fill="none" xmlns="http://www.w3.org/2000/svg">
<g clip-path="url(#clip0_224_1477)">
<path d="M27.9655 10.1963C27.8115 9.57975 27.1868 9.20484 26.5705 9.35887L22.8437 10.2903L21.4007 8.50779C21.3438 8.33604 21.4017 8.49262 20.0843 5.65165C19.6994 4.82386 18.7173 4.46455 17.8891 4.84693L18.5217 5.5301L15.3729 3.40947C15.1045 3.22874 14.7728 3.16935 14.4586 3.24562L9.91095 4.35026C9.29358 4.50022 8.9144 5.12229 9.06458 5.73967C9.21433 6.35704 9.83661 6.736 10.454 6.58604L14.5083 5.60145L17.2365 7.43861L14.9416 6.57066L17.5995 11.8907L20.1997 10.681L21.5169 12.3081C21.7993 12.657 22.2573 12.8084 22.6899 12.7004L27.1283 11.5914C27.7446 11.4372 28.1195 10.8126 27.9655 10.1963Z" fill="white"/>
<path d="M12.6065 7.30467L11.202 7.95814L6.14915 6.87913L2.09566 4.29279C1.4612 3.88798 0.618883 4.07404 0.214067 4.70851C-0.190748 5.34275 -0.00446855 6.18528 0.629777 6.5901L4.8907 9.30888C5.02806 9.39646 5.17994 9.45884 5.33909 9.49281L11.159 10.7357C11.1934 10.7429 11.2276 10.7485 11.262 10.7532L12.2427 12.8612L12.6527 17.113L11.0971 23.031C10.9057 23.7588 11.3406 24.5039 12.0684 24.6953C12.796 24.8865 13.5413 24.4518 13.7325 23.7237L15.3501 17.5705C15.3909 17.415 15.4039 17.2535 15.3885 17.0933L15.0034 13.0983L15.4071 12.9106L12.6065 7.30467Z" fill="white"/>
<path d="M26.0699 4.93173C25.4991 3.70425 24.0412 3.17212 22.8139 3.74313C21.5864 4.31415 21.0543 5.77191 21.6253 6.99939C22.1963 8.22666 23.6541 8.75879 24.8816 8.18778C26.1088 7.61697 26.6409 6.159 26.0699 4.93173Z" fill="white"/>
<path d="M17.0022 12.0725L14.2269 6.51723C14.0805 6.22435 13.7246 6.10558 13.4315 6.25191C13.1374 6.39867 13.0222 6.75564 13.1652 7.04467L13.16 7.04702H13.1662L15.9104 12.5403V15.1418C15.9104 15.4693 16.176 15.7348 16.5034 15.7348C16.8307 15.7348 17.0962 15.4693 17.0962 15.1418V14.0242L17.3878 14.3704C17.5995 14.6214 17.9736 14.6522 18.2233 14.4418C18.4737 14.2307 18.5057 13.8569 18.2947 13.6065C17.9947 13.2506 17.302 12.4284 17.0022 12.0725Z" fill="white"/>
</g>
<defs>
<clipPath id="clip0_224_1477">
<rect width="28" height="28" fill="white"/>
</clipPath>
</defs>
</svg>
